<svg xmlns="http://www.w3.org/2000/svg" width="900" height="620" viewBox="0 0 900 620">
  <style>
    text { font-family: Arial, Helvetica, sans-serif; fill: #222; }
    .title { font-size: 22px; font-weight: 700; }
    .sub { font-size: 13px; fill: #555; }
    .tick { font-size: 12px; fill: #333; }
    .axis { stroke: #222; stroke-width: 1.2; }
    .grid { stroke: #d7d7d7; stroke-width: 1; }
  </style>
  <rect width="900" height="620" fill="#ffffff" />
  <text x="32" y="34" class="title">D2Q9 Poiseuille velocity profile validation</text>
  <text x="32" y="55" class="sub">Measured channel profile vs analytic parabola; shaded band is the Linf tolerance. Gate: PASS.</text>

  <line x1="78" y1="382" x2="768" y2="382" class="axis" />
  <line x1="78" y1="72" x2="78" y2="382" class="axis" />
  <line x1="78.00" y1="72" x2="78.00" y2="382" class="grid" />
  <text x="78.00" y="404" text-anchor="middle" class="tick">0.5</text>
  <line x1="216.00" y1="72" x2="216.00" y2="382" class="grid" />
  <text x="216.00" y="404" text-anchor="middle" class="tick">6.7</text>
  <line x1="354.00" y1="72" x2="354.00" y2="382" class="grid" />
  <text x="354.00" y="404" text-anchor="middle" class="tick">12.9</text>
  <line x1="492.00" y1="72" x2="492.00" y2="382" class="grid" />
  <text x="492.00" y="404" text-anchor="middle" class="tick">19.1</text>
  <line x1="630.00" y1="72" x2="630.00" y2="382" class="grid" />
  <text x="630.00" y="404" text-anchor="middle" class="tick">25.3</text>
  <line x1="768.00" y1="72" x2="768.00" y2="382" class="grid" />
  <text x="768.00" y="404" text-anchor="middle" class="tick">31.5</text>
  <line x1="78" y1="72.00" x2="768" y2="72.00" class="grid" />
  <text x="68" y="76.00" text-anchor="end" class="tick">1.38e-03</text>
  <line x1="78" y1="149.50" x2="768" y2="149.50" class="grid" />
  <text x="68" y="153.50" text-anchor="end" class="tick">1.04e-03</text>
  <line x1="78" y1="227.00" x2="768" y2="227.00" class="grid" />
  <text x="68" y="231.00" text-anchor="end" class="tick">6.92e-04</text>
  <line x1="78" y1="304.50" x2="768" y2="304.50" class="grid" />
  <text x="68" y="308.50" text-anchor="end" class="tick">3.46e-04</text>
  <line x1="78" y1="382.00" x2="768" y2="382.00" class="grid" />
  <text x="68" y="386.00" text-anchor="end" class="tick">0.00e+00</text>

  <polygon points="78.00,363.59 100.26,330.01 122.52,298.67 144.77,269.57 167.03,242.71 189.29,218.08 211.55,195.70 233.81,175.55 256.06,157.64 278.32,141.97 300.58,128.54 322.84,117.35 345.10,108.39 367.35,101.68 389.61,97.20 411.87,94.96 434.13,94.96 456.39,97.20 478.65,101.68 500.90,108.39 523.16,117.35 545.42,128.54 567.68,141.97 589.94,157.64 612.19,175.55 634.45,195.70 656.71,218.08 678.97,242.71 701.23,269.57 723.48,298.67 745.74,330.01 768.00,363.59 768.00,365.15 745.74,331.58 723.48,300.24 701.23,271.14 678.97,244.27 656.71,219.65 634.45,197.26 612.19,177.12 589.94,159.21 567.68,143.54 545.42,130.11 523.16,118.92 500.90,109.96 478.65,103.25 456.39,98.77 434.13,96.53 411.87,96.53 389.61,98.77 367.35,103.25 345.10,109.96 322.84,118.92 300.58,130.11 278.32,143.54 256.06,159.21 233.81,177.12 211.55,197.26 189.29,219.65 167.03,244.27 144.77,271.14 122.52,300.24 100.26,331.58 78.00,365.15" fill="#f2c94c" fill-opacity="0.28" stroke="none" />
  <polyline points="78.00,364.37 100.26,330.79 122.52,299.45 144.77,270.35 167.03,243.49 189.29,218.87 211.55,196.48 233.81,176.33 256.06,158.43 278.32,142.76 300.58,129.32 322.84,118.13 345.10,109.18 367.35,102.46 389.61,97.98 411.87,95.75 434.13,95.75 456.39,97.98 478.65,102.46 500.90,109.18 523.16,118.13 545.42,129.32 567.68,142.76 589.94,158.43 612.19,176.33 634.45,196.48 656.71,218.87 678.97,243.49 701.23,270.35 723.48,299.45 745.74,330.79 768.00,364.37" fill="none" stroke="#222222" stroke-width="2.2" />
  <polyline points="78.00,364.52 100.26,330.94 122.52,299.60 144.77,270.50 167.03,243.64 189.29,219.01 211.55,196.63 233.81,176.48 256.06,158.57 278.32,142.90 300.58,129.47 322.84,118.28 345.10,109.32 367.35,102.61 389.61,98.13 411.87,95.89 434.13,95.89 456.39,98.13 478.65,102.61 500.90,109.32 523.16,118.28 545.42,129.47 567.68,142.90 589.94,158.57 612.19,176.48 634.45,196.63 656.71,219.01 678.97,243.64 701.23,270.50 723.48,299.60 745.74,330.94 768.00,364.52" fill="none" stroke="#2f6fbb" stroke-width="2.4" />
  <circle cx="78.00" cy="364.52" r="2.6" fill="#2f6fbb" />
  <circle cx="100.26" cy="330.94" r="2.6" fill="#2f6fbb" />
  <circle cx="122.52" cy="299.60" r="2.6" fill="#2f6fbb" />
  <circle cx="144.77" cy="270.50" r="2.6" fill="#2f6fbb" />
  <circle cx="167.03" cy="243.64" r="2.6" fill="#2f6fbb" />
  <circle cx="189.29" cy="219.01" r="2.6" fill="#2f6fbb" />
  <circle cx="211.55" cy="196.63" r="2.6" fill="#2f6fbb" />
  <circle cx="233.81" cy="176.48" r="2.6" fill="#2f6fbb" />
  <circle cx="256.06" cy="158.57" r="2.6" fill="#2f6fbb" />
  <circle cx="278.32" cy="142.90" r="2.6" fill="#2f6fbb" />
  <circle cx="300.58" cy="129.47" r="2.6" fill="#2f6fbb" />
  <circle cx="322.84" cy="118.28" r="2.6" fill="#2f6fbb" />
  <circle cx="345.10" cy="109.32" r="2.6" fill="#2f6fbb" />
  <circle cx="367.35" cy="102.61" r="2.6" fill="#2f6fbb" />
  <circle cx="389.61" cy="98.13" r="2.6" fill="#2f6fbb" />
  <circle cx="411.87" cy="95.89" r="2.6" fill="#2f6fbb" />
  <circle cx="434.13" cy="95.89" r="2.6" fill="#2f6fbb" />
  <circle cx="456.39" cy="98.13" r="2.6" fill="#2f6fbb" />
  <circle cx="478.65" cy="102.61" r="2.6" fill="#2f6fbb" />
  <circle cx="500.90" cy="109.32" r="2.6" fill="#2f6fbb" />
  <circle cx="523.16" cy="118.28" r="2.6" fill="#2f6fbb" />
  <circle cx="545.42" cy="129.47" r="2.6" fill="#2f6fbb" />
  <circle cx="567.68" cy="142.90" r="2.6" fill="#2f6fbb" />
  <circle cx="589.94" cy="158.57" r="2.6" fill="#2f6fbb" />
  <circle cx="612.19" cy="176.48" r="2.6" fill="#2f6fbb" />
  <circle cx="634.45" cy="196.63" r="2.6" fill="#2f6fbb" />
  <circle cx="656.71" cy="219.01" r="2.6" fill="#2f6fbb" />
  <circle cx="678.97" cy="243.64" r="2.6" fill="#2f6fbb" />
  <circle cx="701.23" cy="270.50" r="2.6" fill="#2f6fbb" />
  <circle cx="723.48" cy="299.60" r="2.6" fill="#2f6fbb" />
  <circle cx="745.74" cy="330.94" r="2.6" fill="#2f6fbb" />
  <circle cx="768.00" cy="364.52" r="2.6" fill="#2f6fbb" />

  <text x="423.00" y="430" text-anchor="middle" class="tick">y cell center</text>
  <text x="22" y="227.00" transform="rotate(-90 22 227.00)" text-anchor="middle" class="tick">streamwise velocity ux</text>
  <rect x="608" y="86" width="220" height="70" fill="#ffffff" stroke="#cccccc" />
  <line x1="626" y1="108" x2="680" y2="108" stroke="#2f6fbb" stroke-width="2.4" />
  <text x="690" y="112" class="tick">measured</text>
  <line x1="626" y1="132" x2="680" y2="132" stroke="#222222" stroke-width="2.2" />
  <text x="690" y="136" class="tick">analytic reference</text>
  <rect x="626" y="142" width="54" height="10" fill="#f2c94c" fill-opacity="0.28" />
  <text x="690" y="152" class="tick">+/- Linf limit</text>

  <text x="32" y="430" class="title">Error gates</text>
  <text x="32" y="451" class="sub">Bars show measured error divided by the unchanged pass limit; vertical line is the pass threshold.</text>
  <line x1="112" y1="458" x2="712" y2="458" class="axis" />
  <line x1="595.09" y1="452" x2="595.09" y2="548" stroke="#b00020" stroke-width="2" />
  <text x="595.09" y="568" text-anchor="middle" class="tick">pass limit</text>
  <text x="24" y="488" class="tick">relative L2</text><rect x="112" y="470" width="9.60" height="22" fill="#2f6fbb" /><text x="129.60" y="486" class="tick">6.955e-04 / 3.50e-02</text><text x="24" y="526" class="tick">absolute Linf</text><rect x="112" y="508" width="89.75" height="22" fill="#b05a2a" /><text x="209.75" y="524" class="tick">6.503e-07 / 3.50e-06</text>

  <text x="32" y="592" class="sub">umax numeric/exact = 1.278100e-03 / 1.278750e-03; mass drift = 1.092e-12</text>
</svg>
