<svg xmlns="http://www.w3.org/2000/svg" width="960" height="720" viewBox="0 0 960 720">
<rect width="960" height="720" fill="#ffffff"/>
<text x="40.0" y="34.0" font-size="22" font-family="Arial, sans-serif" text-anchor="start" font-weight="bold" fill="#1f2937">fem_poisson P1 convergence gate</text>
<text x="40.0" y="58.0" font-size="13" font-family="Arial, sans-serif" text-anchor="start" font-weight="normal" fill="#475569">Measured L2 error from sweep.py against manufactured solution; pass band is the configured observed-order tolerance.</text>
<rect x="90" y="70" width="830" height="330" fill="#f8fafc" stroke="#cbd5e1"/>
<polygon points="920.0,101.9 643.3,190.6 366.7,279.4 90.0,368.1 90.0,319.7 366.7,247.1 643.3,174.5 920.0,101.9" fill="#dcfce7" opacity="0.65" stroke="none"/>
<line x1="920.0" y1="70.0" x2="920.0" y2="400.0" stroke="#e2e8f0" stroke-width="1"/>
<text x="920.0" y="424.0" font-size="12" font-family="Arial, sans-serif" text-anchor="middle" font-weight="normal" fill="#475569">0.06250</text>
<line x1="643.3" y1="70.0" x2="643.3" y2="400.0" stroke="#e2e8f0" stroke-width="1"/>
<text x="643.3" y="424.0" font-size="12" font-family="Arial, sans-serif" text-anchor="middle" font-weight="normal" fill="#475569">0.03125</text>
<line x1="366.7" y1="70.0" x2="366.7" y2="400.0" stroke="#e2e8f0" stroke-width="1"/>
<text x="366.7" y="424.0" font-size="12" font-family="Arial, sans-serif" text-anchor="middle" font-weight="normal" fill="#475569">0.01562</text>
<line x1="90.0" y1="70.0" x2="90.0" y2="400.0" stroke="#e2e8f0" stroke-width="1"/>
<text x="90.0" y="424.0" font-size="12" font-family="Arial, sans-serif" text-anchor="middle" font-weight="normal" fill="#475569">0.00781</text>
<line x1="90.0" y1="343.3" x2="920.0" y2="343.3" stroke="#e2e8f0" stroke-width="1"/>
<text x="80.0" y="347.3" font-size="12" font-family="Arial, sans-serif" text-anchor="end" font-weight="normal" fill="#475569">1.4e-04</text>
<line x1="90.0" y1="101.9" x2="920.0" y2="101.9" stroke="#e2e8f0" stroke-width="1"/>
<text x="80.0" y="105.9" font-size="12" font-family="Arial, sans-serif" text-anchor="end" font-weight="normal" fill="#475569">8.6e-03</text>
<line x1="90.0" y1="400.0" x2="920.0" y2="400.0" stroke="#334155" stroke-width="1.5"/>
<line x1="90.0" y1="70.0" x2="90.0" y2="400.0" stroke="#334155" stroke-width="1.5"/>
<polyline points="920.0,101.9 643.3,182.6 366.7,263.2 90.0,343.9" fill="none" stroke="#0f766e" stroke-width="2.5" stroke-linejoin="round" stroke-linecap="round" stroke-dasharray="7 5"/>
<polyline points="920.0,101.9 643.3,182.1 366.7,262.7 90.0,343.3" fill="none" stroke="#1d4ed8" stroke-width="3" stroke-linejoin="round" stroke-linecap="round"/>
<circle cx="920.0" cy="101.9" r="5.5" fill="#1d4ed8" stroke="#ffffff" stroke-width="1.5"/>
<text x="920.0" y="91.9" font-size="11" font-family="Arial, sans-serif" text-anchor="middle" font-weight="normal" fill="#1e3a8a">n=16</text>
<circle cx="643.3" cy="182.1" r="5.5" fill="#1d4ed8" stroke="#ffffff" stroke-width="1.5"/>
<text x="643.3" y="172.1" font-size="11" font-family="Arial, sans-serif" text-anchor="middle" font-weight="normal" fill="#1e3a8a">n=32</text>
<circle cx="366.7" cy="262.7" r="5.5" fill="#1d4ed8" stroke="#ffffff" stroke-width="1.5"/>
<text x="366.7" y="252.7" font-size="11" font-family="Arial, sans-serif" text-anchor="middle" font-weight="normal" fill="#1e3a8a">n=64</text>
<circle cx="90.0" cy="343.3" r="5.5" fill="#1d4ed8" stroke="#ffffff" stroke-width="1.5"/>
<text x="90.0" y="333.3" font-size="11" font-family="Arial, sans-serif" text-anchor="middle" font-weight="normal" fill="#1e3a8a">n=128</text>
<text x="505.0" y="452.0" font-size="14" font-family="Arial, sans-serif" text-anchor="middle" font-weight="bold" fill="#1f2937">mesh spacing h</text>
<text x="24.0" y="235.0" font-size="14" font-family="Arial, sans-serif" text-anchor="middle" font-weight="bold" fill="#1f2937">L2 error</text>
<g transform="translate(735,92)">
<rect x="0" y="0" width="184" height="86" fill="#ffffff" stroke="#cbd5e1"/>
<rect x="14" y="18" width="28" height="12" fill="#dcfce7" opacity="0.8"/>
<text x="50.0" y="29.0" font-size="12" font-family="Arial, sans-serif" text-anchor="start" font-weight="normal" fill="#1f2937">pass band p=[1.8, 2.2]</text>
<line x1="14.0" y1="48.0" x2="42.0" y2="48.0" stroke="#0f766e" stroke-width="2.5" stroke-dasharray="7 5"/>
<text x="50.0" y="52.0" font-size="12" font-family="Arial, sans-serif" text-anchor="start" font-weight="normal" fill="#1f2937">P1 theory O(h^2)</text>
<line x1="14.0" y1="68.0" x2="42.0" y2="68.0" stroke="#1d4ed8" stroke-width="3"/>
<text x="50.0" y="72.0" font-size="12" font-family="Arial, sans-serif" text-anchor="start" font-weight="normal" fill="#1f2937">measured L2</text>
</g>
<rect x="90" y="470" width="830" height="130" fill="#f8fafc" stroke="#cbd5e1"/>
<rect x="90" y="480.0" width="830" height="80.0" fill="#dcfce7" opacity="0.65"/>
<line x1="90.0" y1="560.0" x2="920.0" y2="560.0" stroke="#16a34a" stroke-width="1.8" stroke-dasharray="5 5"/>
<text x="816.0" y="554.0" font-size="12" font-family="Arial, sans-serif" text-anchor="start" font-weight="normal" fill="#16a34a">lower pass 1.8</text>
<line x1="90.0" y1="520.0" x2="920.0" y2="520.0" stroke="#0f766e" stroke-width="1.8" stroke-dasharray="2 5"/>
<text x="816.0" y="514.0" font-size="12" font-family="Arial, sans-serif" text-anchor="start" font-weight="normal" fill="#0f766e">theory 2.0</text>
<line x1="90.0" y1="480.0" x2="920.0" y2="480.0" stroke="#16a34a" stroke-width="1.8" stroke-dasharray="5 5"/>
<text x="816.0" y="474.0" font-size="12" font-family="Arial, sans-serif" text-anchor="start" font-weight="normal" fill="#16a34a">upper pass 2.2</text>
<polyline points="90.0,522.2 505.0,520.6 920.0,520.1" fill="none" stroke="#7c3aed" stroke-width="3" stroke-linejoin="round" stroke-linecap="round"/>
<circle cx="90.0" cy="522.2" r="5.5" fill="#7c3aed" stroke="#ffffff" stroke-width="1.5"/>
<text x="90.0" y="624.0" font-size="12" font-family="Arial, sans-serif" text-anchor="middle" font-weight="normal" fill="#475569">16-&gt;32</text>
<text x="90.0" y="512.2" font-size="11" font-family="Arial, sans-serif" text-anchor="middle" font-weight="normal" fill="#581c87">1.989</text>
<circle cx="505.0" cy="520.6" r="5.5" fill="#7c3aed" stroke="#ffffff" stroke-width="1.5"/>
<text x="505.0" y="624.0" font-size="12" font-family="Arial, sans-serif" text-anchor="middle" font-weight="normal" fill="#475569">32-&gt;64</text>
<text x="505.0" y="510.6" font-size="11" font-family="Arial, sans-serif" text-anchor="middle" font-weight="normal" fill="#581c87">1.997</text>
<circle cx="920.0" cy="520.1" r="5.5" fill="#7c3aed" stroke="#ffffff" stroke-width="1.5"/>
<text x="920.0" y="624.0" font-size="12" font-family="Arial, sans-serif" text-anchor="middle" font-weight="normal" fill="#475569">64-&gt;128</text>
<text x="920.0" y="510.1" font-size="11" font-family="Arial, sans-serif" text-anchor="middle" font-weight="normal" fill="#581c87">1.999</text>
<line x1="90.0" y1="600.0" x2="920.0" y2="600.0" stroke="#334155" stroke-width="1.5"/>
<line x1="90.0" y1="470.0" x2="90.0" y2="600.0" stroke="#334155" stroke-width="1.5"/>
<text x="505.0" y="652.0" font-size="14" font-family="Arial, sans-serif" text-anchor="middle" font-weight="bold" fill="#1f2937">refinement step n_coarse -&gt; n_fine</text>
<text x="32.0" y="535.0" font-size="14" font-family="Arial, sans-serif" text-anchor="middle" font-weight="bold" fill="#1f2937">observed order p</text>
<text x="40.0" y="690.0" font-size="15" font-family="Arial, sans-serif" text-anchor="start" font-weight="bold" fill="#166534">PASS: mean observed order = 1.995; finest L2 error = 1.357e-04</text>
</svg>
