<svg xmlns="http://www.w3.org/2000/svg" width="920" height="560" viewBox="0 0 920 560">
<rect width="100%" height="100%" fill="white"/>
<text x="460.0" y="28" text-anchor="middle" font-family="sans-serif" font-size="20" font-weight="700">MPM elastic bar transfer errors vs 1e-12 tolerance</text>
<rect x="84" y="58" width="584" height="426" fill="#fafafa" stroke="#333" stroke-width="1"/>
<line x1="84" y1="484.000" x2="668" y2="484.000" stroke="#dddddd" stroke-width="1"/>
<text x="74" y="488.000" text-anchor="end" font-family="sans-serif" font-size="12">1e-18</text>
<line x1="84" y1="423.143" x2="668" y2="423.143" stroke="#dddddd" stroke-width="1"/>
<text x="74" y="427.143" text-anchor="end" font-family="sans-serif" font-size="12">1e-17</text>
<line x1="84" y1="362.286" x2="668" y2="362.286" stroke="#dddddd" stroke-width="1"/>
<text x="74" y="366.286" text-anchor="end" font-family="sans-serif" font-size="12">1e-16</text>
<line x1="84" y1="301.429" x2="668" y2="301.429" stroke="#dddddd" stroke-width="1"/>
<text x="74" y="305.429" text-anchor="end" font-family="sans-serif" font-size="12">1e-15</text>
<line x1="84" y1="240.571" x2="668" y2="240.571" stroke="#dddddd" stroke-width="1"/>
<text x="74" y="244.571" text-anchor="end" font-family="sans-serif" font-size="12">1e-14</text>
<line x1="84" y1="179.714" x2="668" y2="179.714" stroke="#dddddd" stroke-width="1"/>
<text x="74" y="183.714" text-anchor="end" font-family="sans-serif" font-size="12">1e-13</text>
<line x1="84" y1="118.857" x2="668" y2="118.857" stroke="#444444" stroke-width="2" stroke-dasharray="7 5"/>
<text x="74" y="122.857" text-anchor="end" font-family="sans-serif" font-size="12">1e-12</text>
<line x1="84" y1="58.000" x2="668" y2="58.000" stroke="#dddddd" stroke-width="1"/>
<text x="74" y="62.000" text-anchor="end" font-family="sans-serif" font-size="12">1e-11</text>
<line x1="84.000" y1="58" x2="84.000" y2="484" stroke="#eeeeee"/>
<text x="84.000" y="508" text-anchor="middle" font-family="sans-serif" font-size="13">32</text>
<line x1="376.000" y1="58" x2="376.000" y2="484" stroke="#eeeeee"/>
<text x="376.000" y="508" text-anchor="middle" font-family="sans-serif" font-size="13">64</text>
<line x1="668.000" y1="58" x2="668.000" y2="484" stroke="#eeeeee"/>
<text x="668.000" y="508" text-anchor="middle" font-family="sans-serif" font-size="13">96</text>
<text x="376.0" y="538" text-anchor="middle" font-family="sans-serif" font-size="14">grid cells in x (particles scale with resolution)</text>
<text x="21" y="271.0" text-anchor="middle" font-family="sans-serif" font-size="14" transform="rotate(-90 21 271.0)">absolute or relative error (log10)</text>
<text x="680" y="122.857" font-family="sans-serif" font-size="13" font-weight="700" fill="#333">pass tolerance = 1e-12</text>
<polyline points="84.000,256.010 376.000,267.625 668.000,243.589" fill="none" stroke="#1f77b4" stroke-width="2.5" stroke-linejoin="round" stroke-linecap="round"/>
<circle cx="84.000" cy="256.010" r="4.2" fill="#1f77b4" stroke="white" stroke-width="1.5"><title>mass: nx=32, particles=256, error=5.576e-15</title></circle>
<circle cx="376.000" cy="267.625" r="4.2" fill="#1f77b4" stroke="white" stroke-width="1.5"><title>mass: nx=64, particles=512, error=3.593e-15</title></circle>
<circle cx="668.000" cy="243.589" r="4.2" fill="#1f77b4" stroke="white" stroke-width="1.5"><title>mass: nx=96, particles=768, error=8.921e-15</title></circle>
<polyline points="84.000,484.000 376.000,484.000 668.000,484.000" fill="none" stroke="#d62728" stroke-width="2.5" stroke-linejoin="round" stroke-linecap="round"/>
<circle cx="84.000" cy="484.000" r="4.2" fill="#d62728" stroke="white" stroke-width="1.5"><title>momentum: nx=32, particles=256, error=0.000e+00</title></circle>
<circle cx="376.000" cy="484.000" r="4.2" fill="#d62728" stroke="white" stroke-width="1.5"><title>momentum: nx=64, particles=512, error=8.674e-19</title></circle>
<circle cx="668.000" cy="484.000" r="4.2" fill="#d62728" stroke="white" stroke-width="1.5"><title>momentum: nx=96, particles=768, error=6.505e-19</title></circle>
<polyline points="84.000,258.472 376.000,267.625 668.000,243.589" fill="none" stroke="#2ca02c" stroke-width="2.5" stroke-linejoin="round" stroke-linecap="round"/>
<circle cx="84.000" cy="258.472" r="4.2" fill="#2ca02c" stroke="white" stroke-width="1.5"><title>density integral: nx=32, particles=256, error=5.080e-15</title></circle>
<circle cx="376.000" cy="267.625" r="4.2" fill="#2ca02c" stroke="white" stroke-width="1.5"><title>density integral: nx=64, particles=512, error=3.593e-15</title></circle>
<circle cx="668.000" cy="243.589" r="4.2" fill="#2ca02c" stroke="white" stroke-width="1.5"><title>density integral: nx=96, particles=768, error=8.921e-15</title></circle>
<polyline points="84.000,341.208 376.000,341.208 668.000,341.208" fill="none" stroke="#9467bd" stroke-width="2.5" stroke-linejoin="round" stroke-linecap="round"/>
<circle cx="84.000" cy="341.208" r="4.2" fill="#9467bd" stroke="white" stroke-width="1.5"><title>affine gather: nx=32, particles=256, error=2.220e-16</title></circle>
<circle cx="376.000" cy="341.208" r="4.2" fill="#9467bd" stroke="white" stroke-width="1.5"><title>affine gather: nx=64, particles=512, error=2.220e-16</title></circle>
<circle cx="668.000" cy="341.208" r="4.2" fill="#9467bd" stroke="white" stroke-width="1.5"><title>affine gather: nx=96, particles=768, error=2.220e-16</title></circle>
<text x="700" y="102" font-family="sans-serif" font-size="15" font-weight="700">Measured error</text>
<line x1="700" y1="128" x2="728" y2="128" stroke="#1f77b4" stroke-width="3"/>
<circle cx="714" cy="128" r="4" fill="#1f77b4" stroke="white" stroke-width="1"/>
<text x="738" y="133" font-family="sans-serif" font-size="13">mass</text>
<line x1="700" y1="158" x2="728" y2="158" stroke="#d62728" stroke-width="3"/>
<circle cx="714" cy="158" r="4" fill="#d62728" stroke="white" stroke-width="1"/>
<text x="738" y="163" font-family="sans-serif" font-size="13">momentum</text>
<line x1="700" y1="188" x2="728" y2="188" stroke="#2ca02c" stroke-width="3"/>
<circle cx="714" cy="188" r="4" fill="#2ca02c" stroke="white" stroke-width="1"/>
<text x="738" y="193" font-family="sans-serif" font-size="13">density integral</text>
<line x1="700" y1="218" x2="728" y2="218" stroke="#9467bd" stroke-width="3"/>
<circle cx="714" cy="218" r="4" fill="#9467bd" stroke="white" stroke-width="1"/>
<text x="738" y="223" font-family="sans-serif" font-size="13">affine gather</text>
<text x="700" y="270" font-family="sans-serif" font-size="13">Worst measured error: 8.921e-15</text>
<text x="700" y="292" font-family="sans-serif" font-size="13" font-weight="700">PASS: all four checks <= 1.0e-12</text>
</svg>
